<svg xmlns="http://www.w3.org/2000/svg" xmlns:xlink="http://www.w3.org/1999/xlink" version="1.1" id="Lager_1" x="0px" y="0px" width="70px" height="46.5px" viewBox="0 0 70 46.5" enable-background="new 0 0 70 46.5" xml:space="preserve">
<path fill="#0B0A0B" d="M13.5,30.6"/>
<path d="M54.8,7.9c0.6,0,0.9,0,1,0.1C55.9,8.1,56,8.3,56,8.8c0,0,0,11.2,0.1,11.5c0,0.3,0.2,0.6,0.4,1c0.6,0.9,1.8,1.3,3.6,1.3  c2,0,3.5-0.5,4.6-1.6c0.4-0.4,0.7-0.7,0.7-1c0-0.1,0-0.2-0.1-0.2c-0.1,0-0.3,0.2-0.7,0.5c-0.8,0.7-1.4,1-1.9,1c-1.1,0-1.7-0.7-1.9-2  c-0.1-1-0.1-4.6-0.1-10.7V8H61c1.1,0,2.2,0,3.1,0c0.3,0,0.4-0.2,0.4-0.5c0-0.1,0-0.2-0.1-0.2c0,0-0.1,0-0.1,0  c-0.4,0.1-1.1,0.1-2,0.1c-0.9,0-1.5-0.1-1.7-0.3c-0.2-0.2-0.3-1.3-0.2-3.2c0-0.3-0.1-0.5-0.2-0.5c-0.1,0-0.3,0.2-0.5,0.5  c-1.5,2.3-3.4,3.4-5.5,3.5c-0.3,0-0.4,0.1-0.4,0.3C53.8,7.8,54.1,7.9,54.8,7.9z M63,12.3c-0.3,0.3-0.5,0.7-0.5,1.1  c0,0.4,0.1,0.8,0.4,1.1c0.1,0.1,0.3,0.3,0.5,0.6c-0.7,0.3-1.2,0.6-1.5,0.9c-0.3,0.3-0.5,0.8-0.5,1.3c0,0.6,0.2,1.1,0.7,1.5  c0.5,0.4,1.1,0.6,1.9,0.6c0.9,0,1.6-0.2,2.1-0.7c0.1,0.2,0.2,0.3,0.3,0.5H69c0.1,0,0.2,0,0.2-0.1c0-0.1-0.1-0.1-0.2-0.1  c-0.4,0-0.7-0.1-0.9-0.1c-0.2-0.1-0.3-0.2-0.5-0.5l-0.2-0.3l-0.2-0.4l-0.1-0.1c0.5-0.5,0.8-1.3,1-2.2c0,0,0,0,0,0c0-0.1,0-0.2,0-0.3  c0-0.3-0.1-0.6-0.3-0.8c-0.2-0.2-0.5-0.3-0.8-0.3c-0.3,0-0.6,0.1-0.8,0.3c-0.2,0.2-0.3,0.5-0.3,0.8c0,0.3,0.1,0.6,0.3,0.8  c0.2,0.2,0.5,0.3,0.8,0.3c0.2,0,0.4-0.1,0.6-0.2c-0.1,0.6-0.3,1.1-0.7,1.5c-0.2-0.3-0.5-0.8-1-1.4c-0.5-0.6-0.9-1.1-1.2-1.4  c1-0.3,1.4-0.8,1.4-1.5c0-0.4-0.2-0.7-0.5-1c-0.3-0.3-0.8-0.4-1.3-0.4C63.8,11.9,63.4,12,63,12.3z M66,18.6  c-0.3,0.3-0.7,0.4-1.2,0.4c-0.5,0-1-0.2-1.3-0.6c-0.4-0.4-0.5-0.9-0.5-1.5c0-0.7,0.2-1.2,0.5-1.5C64.1,16,64.9,17.1,66,18.6z   M65,13.4c0,0.6-0.2,1-0.5,1.2c-0.2-0.2-0.4-0.4-0.6-0.7c-0.2-0.3-0.2-0.6-0.2-0.9c0-0.6,0.2-0.9,0.6-0.9C64.8,12.1,65,12.5,65,13.4  z M67.9,26.3c-1.4-1.5-3.1-2.2-5.1-2.2c-2.1,0-3.8,0.7-5.3,2.1c0-0.1,0-0.3,0-0.4c0-1.3-0.7-2-2.2-2c-1.1,0-2.1,0.5-2.9,1.6  c-1.2-1.2-2.8-1.7-4.9-1.7c-1.8,0-3.3,0.5-4.6,1.5c-1.3,1-1.9,2.2-1.9,3.6c0,1.8,1,3.2,3,4.3c-2,0.6-3,1.8-3,3.5  c0,1.3,0.8,2.2,2.4,2.8c-2.6,0.4-3.9,1.4-3.9,3.2c0,1.2,0.6,2.1,1.7,2.8c1.1,0.7,2.7,1,4.6,1c2.8,0,4.9-0.6,6.6-1.9  c1.6-1.2,2.4-2.9,2.4-5c0-1.3-0.4-2.3-1.2-3c-0.8-0.7-1.9-1.1-3.3-1.1c-0.4,0-0.8,0-1.3,0.1c-1.8,0.3-3.2,0.4-4.1,0.4  c-1.2,0-1.8-0.4-1.8-1.2c0-0.4,0.1-0.7,0.4-0.9c0.3-0.3,0.6-0.4,1-0.4c0.2,0,0.4,0,0.6,0.1c0.9,0.3,1.7,0.4,2.4,0.4  c1.6,0,3-0.4,4.2-1.2c1.5-1.1,2.2-2.4,2.2-4c0-0.7-0.2-1.4-0.6-2.2c-0.2-0.3-0.3-0.6-0.3-0.7c0-0.3,0.1-0.5,0.3-0.8  c0.2-0.2,0.5-0.3,0.7-0.3c0.4,0,0.6,0.2,0.6,0.5c0,0.1,0,0.2-0.1,0.4c-0.1,0.2-0.1,0.4-0.1,0.5c0,0.9,0.5,1.4,1.5,1.4  c0.2,0,0.4,0,0.6-0.1c-0.8,1.2-1.2,2.6-1.2,4.1c0,2,0.7,3.7,2.2,5.1c1.5,1.5,3.2,2.2,5.2,2.2c1.7,0,3.3-0.6,4.7-1.7  c1.8-1.4,2.7-3.3,2.7-5.6C70,29.5,69.3,27.8,67.9,26.3z M44.2,39.7c0.5,0,1.3-0.1,2.4-0.3c1.5-0.2,2.6-0.4,3.5-0.4  c1.9,0,2.8,0.8,2.8,2.4c0,1.2-0.5,2.3-1.6,3.1c-1.1,0.8-2.4,1.3-4,1.3c-3,0-4.4-1.1-4.4-3.4c0-1.1,0.3-2,0.9-2.7H44.2z M49.4,32.6  c-0.3,0.7-0.9,1-1.7,1c-0.9,0-1.5-0.4-1.9-1.2c-0.4-0.8-0.6-2.1-0.6-3.8c0-3,0.8-4.5,2.4-4.5c1.6,0,2.4,1.6,2.4,4.9  C49.8,30.7,49.7,31.9,49.4,32.6z M64.7,36.6c-0.3,1.2-1,1.8-2,1.8c-0.8,0-1.4-0.5-1.9-1.4c-0.6-1.2-0.8-3.2-0.8-6  c0-2,0.2-3.6,0.7-4.8c0.5-1.2,1.1-1.7,2-1.7c0.9,0,1.6,0.5,2,1.6c0.4,1,0.5,2.8,0.5,5.5C65.1,33.8,65,35.5,64.7,36.6z M6.6,7.9  c0.6,0,0.9,0,1,0.1c0.1,0.1,0.2,0.3,0.2,0.7c0,0,0,11.2,0.1,11.5c0,0.3,0.2,0.6,0.4,1c0.6,0.9,1.8,1.3,3.6,1.3c2,0,3.5-0.5,4.6-1.6  c0.4-0.4,0.7-0.7,0.7-1c0-0.1,0-0.2-0.1-0.2c-0.1,0-0.3,0.2-0.7,0.5c-0.8,0.7-1.4,1-1.9,1c-1.1,0-1.7-0.7-1.9-2  c-0.1-1-0.1-4.6-0.1-10.7V7.9h0.5c0.9,0,1.7,0,2.5,0c0.2,0.1,0.3,0.1,0.4,0.2c0.1,0.1,0.3,0.5,0.5,1c1.3,3,2.5,6.2,3.8,9.7  c0.8,2.2,1.2,3.3,1.3,3.4c0.1,0.4,0.3,0.5,0.4,0.5c0.2,0,0.4-0.2,0.5-0.7c0.6-1.9,1.2-3.5,1.7-4.8c0.7-2,1.2-3.3,1.5-4.2  c0.5,1.2,0.8,2,0.9,2.5c1.2,3,1.9,4.8,2.1,5.3c0.3,0.7,0.5,1.2,0.6,1.6c0.1,0.2,0.2,0.3,0.3,0.3c0.2,0,0.3-0.2,0.4-0.6  c0.5-1.5,1.2-3.8,2.3-6.9C33.3,12,34,10,34.4,9C34.6,8.5,34.8,8.2,35,8c0.1-0.1,0.4-0.2,0.9-0.2c0,0,0.1,0,0.1,0l0.3,0.1  c0.2,0,0.3,0.1,0.3,0.2c0.1,0.2,0.2,0.7,0.2,1.6v3.4c0,6.9-1.1,9.8,9.9,9.5c0.1,0,2.8,0,2.9,0c1.3-0.1,2.4-0.5,3.3-1.4  c0.9-0.9,1.4-2.2,1.4-3.7c0-1.3-0.4-2.3-1.1-3c-0.7-0.7-2.1-1.5-4.2-2.2c-1.2-0.4-2-0.8-2.4-1.2c-0.4-0.3-0.6-0.8-0.6-1.4  c0-0.6,0.2-1.2,0.7-1.6c0.5-0.4,1.1-0.6,1.9-0.6c2,0,3.4,1.2,4.1,3.5c0.1,0.2,0.2,0.3,0.3,0.3c0.1,0,0.2-0.1,0.2-0.3v-0.2  C53,9.9,53,8.9,53,7.9c0-0.2,0-0.4,0-0.5l0-0.7c0-0.3-0.1-0.4-0.2-0.4c-0.1,0-0.1,0.1-0.2,0.2c-0.3,0.6-0.6,0.9-1.1,0.9  c-0.1,0-0.2,0-0.4-0.1C49.8,7.1,49,7,48.5,7c-1.3,0-2.4,0.5-3.3,1.4c-0.9,0.9-1.4,2.1-1.4,3.4c0,1.3,0.4,2.3,1.1,3.1  c0.8,0.8,2,1.5,3.7,2.1c1.4,0.5,2.2,0.8,2.6,1.1c0.4,0.4,0.6,0.9,0.6,1.5c0,0.8-0.4,1.4-0.9,1.8c-0.7,0.6-2,0.6-2.6,0.7  c-0.1,0-1.4,0-1.6,0c-5.2,0-5.3-1.5-5.3-6.4c0,0,0-7.3,0-7.3c-0.1-1.2-0.1-2-0.2-2.3c-1.5,0.6-3.3,1-5.3,1.1h-4  c-0.3,0-0.4,0.1-0.4,0.2c0,0.2,0.2,0.3,0.6,0.3h1c0.4,0,0.6,0.2,0.6,0.5c0,0.7-0.9,3.3-2.6,7.9c-0.3-0.7-0.5-1.1-0.6-1.3l-1.1-2.7  c-0.6-1.4-1-2.4-1.2-2.9c-0.5-1.3-0.9-2-1.1-2c-0.2,0-0.6,0.7-1.1,2l-1.6,4.3c-0.5,1.3-0.8,2.2-1.1,2.8c-0.3-1.1-0.7-2.3-1.2-3.5  c-1-2.8-1.6-4.4-1.6-4.6c0-0.3,0.3-0.5,1-0.5c0.7,0,1-0.1,1-0.2c0-0.1-0.2-0.2-0.6-0.2c-0.4,0-0.8,0-1.2,0c-0.8,0-2.1,0.1-4,0.1  c-0.1,0-3-0.1-3-0.1c-0.8,0-1.4-0.1-1.5-0.3c-0.2-0.2-0.3-1.3-0.2-3.2c0-0.3-0.1-0.5-0.2-0.5c-0.1,0-0.3,0.2-0.5,0.5  C9.9,6.1,8.1,7.3,6,7.3c-0.3,0-0.4,0.1-0.4,0.3C5.6,7.8,5.9,7.9,6.6,7.9z M39.1,4.5c0.6,0,1.2-0.2,1.6-0.7c0.4-0.5,0.7-1,0.7-1.6  c0-0.6-0.2-1.1-0.6-1.5C40.4,0.2,39.8,0,39.2,0c-0.7,0-1.3,0.2-1.7,0.6c-0.4,0.4-0.7,0.9-0.7,1.6c0,0.7,0.2,1.2,0.7,1.6  C37.9,4.3,38.5,4.5,39.1,4.5z M24.7,36.7c-0.1,0-0.2,0.1-0.3,0.2c-0.6,0.5-1,0.8-1.4,0.8c-0.5,0-0.9-0.5-1-1.4c0-0.2,0-0.8,0-1.9  v-5.3c0-1.7-0.4-2.9-1.1-3.6c-0.9-0.8-2.5-1.2-4.9-1.2c-1.6,0-2.8,0.4-3.8,1.2c-1,0.8-1.4,1.7-1.4,2.6c0,0.6,0.2,1.1,0.6,1.5  c0.4,0.4,0.9,0.6,1.6,0.6c0.1,0,0.1,0,0.2,0c0.6,0,1-0.2,1.4-0.6c0.4-0.4,0.6-1,0.6-1.6c0-0.6-0.2-1.1-0.6-1.5  c-0.4-0.4-0.9-0.6-1.5-0.6c-0.1,0-0.2,0-0.2,0c0.1-0.2,0.3-0.4,0.5-0.6c0.4-0.4,1-0.6,1.8-0.6c1.3,0,2.1,0.6,2.4,1.7l0,0.2  c0.2,0.5,0.2,1.4,0.2,3.7v0.7c-4.8,0.5-7.3,2.2-7.3,5c0,0.5,0.1,0.9,0.2,1.3c-0.1,0.1-0.2,0.2-0.4,0.3c-0.7,0.7-1.4,1-1.8,1  c-1.1,0-1.7-0.6-1.9-1.9c-0.1-1-0.1-4.5-0.1-10.4v-0.7h0.5c1.1,0,2.1,0,3,0c0.3,0,0.4-0.2,0.4-0.5c0-0.1,0-0.2-0.1-0.2  c0,0-0.1,0-0.1,0c-0.4,0.1-1,0.1-2,0.1c-0.9,0-1.5-0.1-1.6-0.3c-0.2-0.2-0.3-1.2-0.2-3.1c0-0.3-0.1-0.5-0.2-0.5  c-0.1,0-0.3,0.2-0.5,0.5c-1.5,2.2-3.3,3.3-5.4,3.4C0.1,24.9,0,25,0,25.1c0,0.2,0.3,0.3,1,0.3c0.6,0,0.9,0,1,0.1  c0.1,0.1,0.2,0.3,0.2,0.7v9c0,1.2,0,1.9,0,2.2c0,0.3,0.2,0.6,0.4,0.9c0.6,0.9,1.7,1.3,3.5,1.3c1.9,0,3.4-0.5,4.5-1.6  c0.2-0.2,0.3-0.3,0.4-0.5c0.1,0.2,0.3,0.4,0.4,0.6c0.6,0.6,1.4,0.9,2.3,0.9c1.7,0,3.1-0.9,4.1-2.8c0.1,1,0.4,1.7,0.8,2.1  c0.4,0.4,1.1,0.6,2,0.6c1.4,0,2.6-0.4,3.6-1.3c0.4-0.3,0.5-0.6,0.5-0.8C24.9,36.8,24.8,36.7,24.7,36.7z M17.9,32.9  c0,1.6-0.1,2.7-0.4,3.4c-0.2,0.7-0.7,1-1.3,1c-1.1,0-1.6-0.8-1.6-2.4c0-2,1.1-3.3,3.3-3.7V32.9z M40.3,38.4c0-0.1-0.1-0.2-0.4-0.2  h-0.3c-0.1,0-0.3-0.1-0.4-0.2c-0.1-0.1-0.1-0.5-0.1-1.4l0-4.7c0-2.2,0-3.6-0.1-4.3c-0.1-0.7-0.2-1.3-0.5-1.9c-0.6-1.3-1.8-2-3.8-2  c-1.9,0-3.4,0.8-4.6,2.3V24c0-0.4-0.1-0.5-0.3-0.5c-0.1,0-0.2,0-0.4,0.1c-1.5,0.9-3.5,1.5-6,1.6c-0.3,0-0.4,0.1-0.4,0.3  c0,0.1,0.2,0.2,0.5,0.2H25c0.5,0,0.8,0.2,0.9,0.5c0,0.1,0.1,1.2,0.1,3.4l0,6.8c0,0.9,0,1.4-0.1,1.5c-0.1,0.1-0.2,0.2-0.4,0.2h-0.3  c-0.3,0-0.4,0.1-0.4,0.2c0,0.2,0.2,0.3,0.5,0.3l5.8,0c0.3,0,0.5-0.1,0.5-0.3c0-0.1-0.1-0.2-0.4-0.2h-0.3c-0.1,0-0.3-0.1-0.4-0.2  c-0.1-0.1-0.1-0.1-0.1-1l0-9.6c0-0.6,0.2-1.2,0.7-1.6c0.4-0.4,1-0.6,1.7-0.6c0.7,0,1.2,0.2,1.4,0.6c0.3,0.5,0.5,1.9,0.5,4.3v6.5  c0,0.9,0,1.4-0.1,1.5c-0.1,0.1-0.2,0.2-0.4,0.2H34c-0.3,0-0.4,0.1-0.4,0.2c0,0.2,0.2,0.3,0.5,0.3l5.8,0  C40.1,38.6,40.3,38.5,40.3,38.4z"/>
</svg>