
<svg width="383px" height="192px" viewBox="0 0 383 192" version="1.1" xmlns="http://www.w3.org/2000/svg" xmlns:xlink="http://www.w3.org/1999/xlink">
    <defs>
        <polygon id="path-1" points="0.468 0.161 115.398 0.161 115.398 15.94 0.468 15.94"></polygon>
        <polygon id="path-3" points="0.895 0.161 56.565 0.161 56.565 15.94 0.895 15.94"></polygon>
        <polygon id="path-5" points="0.569 0.161 48.899 0.161 48.899 15.94 0.569 15.94"></polygon>
        <polygon id="path-7" points="0.541 0.161 29.54 0.161 29.54 15.94 0.541 15.94"></polygon>
        <polygon id="path-9" points="0.47 0.373 34.577 0.373 34.577 15.94 0.47 15.94"></polygon>
    </defs>
    <g id="Page-1" stroke="none" stroke-width="1" fill="none" fill-rule="evenodd">
        <g id="Edited" transform="translate(8.000000, -2873.000000)">
            <g id="Logo---Barbour" transform="translate(0.000000, 2881.000000)">
                <g id="Group-10" transform="translate(0.000000, 168.000000)">
                    <mask id="mask-2" fill="white">
                        <use xlink:href="#path-1"></use>
                    </mask>
                    <g id="Clip-2"></g>
                    <path d="M0.468,15.594 L3.529,15.594 L4.623,6.509 C4.706,5.808 4.814,4.972 4.814,3.895 L4.814,3.454 C5.128,4.93 5.321,5.771 5.383,5.959 L8.525,15.594 L10.338,15.594 L13.521,5.959 C13.668,5.542 13.859,4.694 14.069,3.454 C14.05,3.641 14.05,3.835 14.05,4.022 C14.05,4.864 14.154,5.687 14.26,6.509 L15.355,15.594 L18.415,15.594 L16.115,0.518 L12.783,0.518 L9.83,9.379 C9.725,9.675 9.579,10.365 9.453,11.449 C9.303,10.389 9.156,9.712 9.05,9.403 L6.141,0.518 L2.765,0.518 L0.468,15.594" id="Fill-1" fill="#1A1919" mask="url(#mask-2)"></path>
                    <path d="M34.907,8.089 C34.907,5.959 34.104,3.998 32.568,2.497 C31.047,1.033 28.982,0.185 26.874,0.185 C24.764,0.185 22.677,1.033 21.158,2.497 C19.621,3.998 18.817,5.935 18.817,8.089 C18.817,10.498 19.851,12.665 21.751,14.184 C23.204,15.346 25.016,16 26.874,16 C28.982,16 31.006,15.176 32.568,13.681 C34.084,12.223 34.907,10.244 34.907,8.089 Z M26.874,13.13 C23.984,13.13 22.129,10.898 22.129,8.089 C22.129,5.311 24.069,3.03 26.874,3.03 C29.633,3.03 31.595,5.311 31.595,8.089 C31.595,10.898 29.678,13.13 26.874,13.13 Z" id="Fill-3" fill="#1A1919" mask="url(#mask-2)"></path>
                    <polyline id="Fill-4" fill="#1A1919" mask="url(#mask-2)" points="42.008 3.266 45.716 3.266 45.716 0.518 35.09 0.518 35.09 3.266 38.78 3.266 38.78 15.594 42.008 15.594 42.008 3.266"></polyline>
                    <path d="M62.089,8.089 C62.089,5.959 61.29,3.998 59.748,2.497 C58.232,1.033 56.164,0.185 54.056,0.185 C51.949,0.185 49.86,1.033 48.341,2.497 C46.801,3.998 46.001,5.935 46.001,8.089 C46.001,10.498 47.033,12.665 48.93,14.184 C50.389,15.346 52.201,16 54.056,16 C56.164,16 58.191,15.176 59.748,13.681 C61.269,12.223 62.089,10.244 62.089,8.089 Z M54.056,13.13 C51.168,13.13 49.314,10.898 49.314,8.089 C49.314,5.311 51.252,3.03 54.056,3.03 C56.819,3.03 58.781,5.311 58.781,8.089 C58.781,10.898 56.861,13.13 54.056,13.13 Z" id="Fill-5" fill="#1A1919" mask="url(#mask-2)"></path>
                    <path d="M74.72,15.594 L70.565,8.743 C72.529,8.489 73.92,6.885 73.92,4.797 C73.92,1.953 72.108,0.518 68.437,0.518 L63.82,0.518 L63.82,15.594 L67.044,15.594 L67.044,8.555 L71.012,15.594 L74.72,15.594 Z M67.044,6.952 L67.044,2.994 L67.53,2.994 C69.577,2.994 70.734,3.284 70.734,5.039 C70.734,6.782 69.532,6.952 67.53,6.952 L67.044,6.952 Z" id="Fill-6" fill="#1A1919" mask="url(#mask-2)"></path>
                    <path d="M88.329,4.44 L88.435,1.214 C87.213,0.627 85.715,0.161 83.816,0.161 C78.799,0.161 75.531,3.617 75.531,8.065 C75.531,12.598 78.882,16 83.754,16 C85.42,16 86.918,15.594 88.288,14.796 L88.309,11.491 C87.022,12.665 85.525,13.234 83.797,13.234 C80.675,13.234 78.839,11.188 78.839,8.065 C78.839,4.845 80.886,2.763 84.111,2.763 C85.904,2.763 87.213,3.454 88.329,4.44" id="Fill-7" fill="#1A1919" mask="url(#mask-2)"></path>
                    <path d="M94.981,15.594 L98.207,15.594 L98.207,8.718 L103.288,0.518 L99.534,0.518 L97.32,4.633 C97.004,5.245 96.771,5.856 96.585,6.528 C96.331,5.669 96.1,5.057 95.889,4.658 L93.653,0.518 L89.877,0.518 L94.981,8.718 L94.981,15.594" id="Fill-8" fill="#1A1919" mask="url(#mask-2)"></path>
                    <path d="M115.296,4.44 L115.398,1.214 C114.175,0.627 112.678,0.161 110.782,0.161 C105.76,0.161 102.497,3.617 102.497,8.065 C102.497,12.598 105.847,16 110.716,16 C112.383,16 113.881,15.594 115.25,14.796 L115.273,11.491 C113.987,12.665 112.487,13.234 110.761,13.234 C107.638,13.234 105.806,11.188 105.806,8.065 C105.806,4.845 107.852,2.763 111.076,2.763 C112.869,2.763 114.175,3.454 115.296,4.44" id="Fill-9" fill="#1A1919" mask="url(#mask-2)"></path>
                </g>
                <polyline id="Fill-11" fill="#1A1919" points="117.819 183.594 126.191 183.594 126.191 180.859 121.044 180.859 121.044 168.518 117.819 168.518 117.819 183.594"></polyline>
                <g id="Group-17" transform="translate(127.000000, 168.000000)">
                    <mask id="mask-4" fill="white">
                        <use xlink:href="#path-3"></use>
                    </mask>
                    <g id="Clip-13"></g>
                    <polyline id="Fill-12" fill="#1A1919" mask="url(#mask-4)" points="0.895 15.594 9.773 15.594 9.773 12.859 4.124 12.859 4.124 9.076 9.773 9.076 9.773 6.34 4.124 6.34 4.124 3.248 9.773 3.248 9.773 0.518 0.895 0.518 0.895 15.594"></polyline>
                    <path d="M30.121,4.44 L30.227,1.214 C29.004,0.627 27.507,0.161 25.611,0.161 C20.592,0.161 17.322,3.617 17.322,8.065 C17.322,12.598 20.674,16 25.546,16 C27.211,16 28.709,15.594 30.079,14.796 L30.102,11.491 C28.814,12.665 27.316,13.234 25.588,13.234 C22.467,13.234 20.631,11.188 20.631,8.065 C20.631,4.845 22.677,2.763 25.906,2.763 C27.699,2.763 29.004,3.454 30.121,4.44" id="Fill-14" fill="#1A1919" mask="url(#mask-4)"></path>
                    <polyline id="Fill-15" fill="#1A1919" mask="url(#mask-4)" points="32.221 15.594 40.593 15.594 40.593 12.859 35.449 12.859 35.449 0.518 32.221 0.518 32.221 15.594"></polyline>
                    <path d="M56.565,8.089 C56.565,5.959 55.763,3.998 54.223,2.497 C52.704,1.033 50.637,0.185 48.527,0.185 C46.418,0.185 44.33,1.033 42.814,2.497 C41.271,3.998 40.475,5.935 40.475,8.089 C40.475,10.498 41.507,12.665 43.404,14.184 C44.86,15.346 46.672,16 48.527,16 C50.637,16 52.664,15.176 54.223,13.681 C55.742,12.223 56.565,10.244 56.565,8.089 Z M48.527,13.13 C45.641,13.13 43.782,10.898 43.782,8.089 C43.782,5.311 45.722,3.03 48.527,3.03 C51.293,3.03 53.248,5.311 53.248,8.089 C53.248,10.898 51.336,13.13 48.527,13.13 Z" id="Fill-16" fill="#1A1919" mask="url(#mask-4)"></path>
                </g>
                <polyline id="Fill-18" fill="#1A1919" points="190.519 171.266 194.229 171.266 194.229 168.518 183.607 168.518 183.607 171.266 187.296 171.266 187.296 183.594 190.519 183.594 190.519 171.266"></polyline>
                <polyline id="Fill-19" fill="#1A1919" points="195.742 183.594 198.971 183.594 198.971 177.299 205.504 177.299 205.504 183.594 208.736 183.594 208.736 168.518 205.504 168.518 205.504 174.57 198.971 174.57 198.971 168.518 195.742 168.518 195.742 183.594"></polyline>
                <polygon id="Fill-20" fill="#1A1919" points="210.597 183.594 213.823 183.594 213.823 168.518 210.597 168.518"></polygon>
                <g id="Group-25" transform="translate(215.000000, 168.000000)">
                    <mask id="mask-6" fill="white">
                        <use xlink:href="#path-5"></use>
                    </mask>
                    <g id="Clip-22"></g>
                    <path d="M0.569,15.594 L3.646,15.594 L3.646,6.988 C3.646,6.25 3.646,5.269 3.443,3.998 C3.943,5.269 4.409,6.171 4.79,6.655 L11.639,15.594 L14.807,15.594 L14.807,0.518 L11.724,0.518 L11.724,8.949 C11.724,9.675 11.724,10.643 11.935,11.926 C11.433,10.668 10.964,9.784 10.582,9.299 L3.925,0.518 L0.569,0.518 L0.569,15.594" id="Fill-21" fill="#1A1919" mask="url(#mask-6)"></path>
                    <path d="M24.515,7.648 L24.515,10.31 L28.143,10.31 L28.143,10.474 C28.143,12.06 26.705,13.173 24.578,13.173 C21.73,13.173 19.73,11.146 19.73,8.065 C19.73,4.972 21.67,2.969 24.647,2.969 C26.396,2.969 27.478,3.677 28.418,4.864 L30.594,3.266 C28.987,1.214 26.923,0.185 24.472,0.185 C19.836,0.185 16.42,3.502 16.42,8.065 C16.42,12.623 19.755,16 24.472,16 C28.485,16 31.414,13.022 31.414,8.41 C31.414,8.156 31.414,7.902 31.39,7.648 L24.515,7.648" id="Fill-23" fill="#1A1919" mask="url(#mask-6)"></path>
                    <path d="M38.753,13.681 C39.555,15.152 41.225,16 43.555,16 C46.935,16 48.899,14.081 48.899,11.358 C48.899,9.458 47.673,8.023 45.144,6.861 C43.455,6.11 42.111,5.771 42.111,4.38 C42.111,3.386 42.932,2.655 44.239,2.655 C45.271,2.655 46.03,3.072 46.496,3.962 L48.388,2.14 C47.38,0.778 46.091,0.161 44.281,0.161 C41.007,0.161 38.961,2.037 38.961,4.422 C38.961,6.528 40.25,7.63 42.469,8.786 C44.541,9.863 45.776,10.135 45.776,11.466 C45.776,12.64 44.89,13.446 43.328,13.446 C42.087,13.446 41.007,12.774 40.547,11.66 L38.753,13.681" id="Fill-24" fill="#1A1919" mask="url(#mask-6)"></path>
                </g>
                <polygon id="Fill-26" fill="#1A1919" points="265.431 183.594 268.662 183.594 268.662 168.518 265.431 168.518"></polygon>
                <g id="Group-30" transform="translate(270.000000, 168.000000)">
                    <mask id="mask-8" fill="white">
                        <use xlink:href="#path-7"></use>
                    </mask>
                    <g id="Clip-28"></g>
                    <path d="M0.541,15.594 L3.619,15.594 L3.619,6.988 C3.619,6.25 3.619,5.269 3.407,3.998 C3.915,5.269 4.385,6.171 4.763,6.655 L11.61,15.594 L14.771,15.594 L14.771,0.518 L11.698,0.518 L11.698,8.949 C11.698,9.675 11.698,10.643 11.907,11.926 C11.402,10.668 10.937,9.784 10.555,9.299 L3.892,0.518 L0.541,0.518 L0.541,15.594" id="Fill-27" fill="#1A1919" mask="url(#mask-8)"></path>
                    <path d="M29.438,4.44 L29.54,1.214 C28.318,0.627 26.826,0.161 24.923,0.161 C19.905,0.161 16.634,3.617 16.634,8.065 C16.634,12.598 19.987,16 24.856,16 C26.523,16 28.024,15.594 29.396,14.796 L29.413,11.491 C28.13,12.665 26.63,13.234 24.898,13.234 C21.788,13.234 19.948,11.188 19.948,8.065 C19.948,4.845 21.993,2.763 25.216,2.763 C27.008,2.763 28.318,3.454 29.438,4.44" id="Fill-29" fill="#1A1919" mask="url(#mask-8)"></path>
                </g>
                <polyline id="Fill-31" fill="#1A1919" points="301.571 183.594 310.45 183.594 310.45 180.859 304.797 180.859 304.797 177.076 310.45 177.076 310.45 174.34 304.797 174.34 304.797 171.248 310.45 171.248 310.45 168.518 301.571 168.518 301.571 183.594"></polyline>
                <polyline id="Fill-32" fill="#1A1919" points="321.398 183.594 324.437 183.594 324.437 168.675 319.646 168.675 318.378 171.199 321.398 171.199 321.398 183.594"></polyline>
                <g id="Group-37" transform="translate(326.000000, 168.000000)">
                    <mask id="mask-10" fill="white">
                        <use xlink:href="#path-9"></use>
                    </mask>
                    <g id="Clip-34"></g>
                    <path d="M8.041,5.39 C8.041,6.806 7.14,7.817 5.808,7.817 C4.292,7.817 3.447,6.861 3.447,5.39 C3.447,3.98 4.377,3.005 5.747,3.005 C7.14,3.005 8.041,3.895 8.041,5.39 Z M6.779,9.759 L2.479,15.594 L6.083,15.594 L8.465,12.036 C10.129,9.548 10.977,7.376 10.977,5.523 C10.977,2.443 9.01,0.373 5.89,0.373 C2.621,0.373 0.47,2.443 0.47,5.542 C0.47,8.258 2.265,10.196 4.843,10.196 C5.493,10.196 6.107,10.117 6.779,9.759 Z" id="Fill-33" fill="#1A1919" mask="url(#mask-10)"></path>
                    <path d="M12.123,11.612 L12.123,11.739 C12.123,14.245 14.108,16 17.253,16 C20.688,16 22.729,14.245 22.729,11.533 C22.729,9.548 21.616,8.047 19.843,7.672 C21.359,7.393 22.373,6.087 22.373,4.38 C22.373,1.934 20.554,0.373 17.609,0.373 C14.529,0.373 12.802,1.832 12.653,4.361 L15.521,4.361 C15.651,3.344 16.32,2.799 17.501,2.799 C18.639,2.799 19.358,3.538 19.358,4.591 C19.358,5.832 18.62,6.486 17.129,6.486 C17.017,6.486 16.887,6.467 16.763,6.467 L16.763,9.1 C16.907,9.1 17.041,9.076 17.168,9.076 C18.832,9.076 19.694,9.844 19.694,11.315 C19.694,12.689 18.851,13.482 17.311,13.482 C15.967,13.482 15.095,12.713 15.095,11.66 L15.095,11.612 L12.123,11.612" id="Fill-35" fill="#1A1919" mask="url(#mask-10)"></path>
                    <path d="M26.979,10.964 C26.979,9.548 27.89,8.531 29.218,8.531 C30.734,8.531 31.581,9.481 31.581,10.964 C31.581,12.375 30.674,13.337 29.3,13.337 C27.911,13.337 26.979,12.453 26.979,10.964 Z M28.253,6.594 L32.55,0.675 L28.942,0.675 L26.558,4.319 C24.891,6.861 24.053,8.973 24.053,10.807 C24.053,13.887 26.014,16 29.13,16 C32.401,16 34.577,13.929 34.577,10.831 C34.577,8.12 32.762,6.171 30.187,6.171 C29.536,6.171 28.918,6.231 28.253,6.594 Z" id="Fill-36" fill="#1A1919" mask="url(#mask-10)"></path>
                </g>
                <path d="M361.936,182.141 C361.936,183.086 362.723,183.89 363.712,183.89 C364.702,183.89 365.482,183.11 365.482,182.141 C365.482,181.155 364.681,180.375 363.712,180.375 C362.737,180.375 361.936,181.155 361.936,182.141" id="Fill-38" fill="#1A1919"></path>
                <path d="M18.373,3.5 C10.174,3.5 3.501,10.372 3.501,18.818 L3.495,121.556 L3.501,121.552 C3.501,129.998 10.174,136.868 18.373,136.868 L348.192,136.868 C356.396,136.868 363.063,129.998 363.063,121.552 L363.073,18.822 L363.063,18.818 C363.063,10.372 356.396,3.5 348.192,3.5 L18.373,3.5" id="Fill-39" fill="#1A1919"></path>
                <path d="M18.373,3.5 C10.174,3.5 3.501,10.372 3.501,18.818 L3.495,121.556 L3.501,121.552 C3.501,129.998 10.174,136.868 18.373,136.868 L348.192,136.868 C356.396,136.868 363.063,129.998 363.063,121.552 L363.073,18.822 L363.063,18.818 C363.063,10.372 356.396,3.5 348.192,3.5 L18.373,3.5 Z" id="Stroke-40" stroke="#1A1919" stroke-width="22.99" stroke-linecap="round" stroke-linejoin="round"></path>
                <path d="M41.457,64.829 C47.093,64.829 49.91,62.357 49.91,57.832 C49.91,53.661 47.093,51.26 41.601,51.26 L37.12,51.26 L37.12,64.829 L41.457,64.829 Z M39.58,42.917 C45.718,42.917 48.754,41.574 48.754,36.909 C48.754,32.385 46.01,31.043 39.796,31.043 L37.12,31.043 L37.12,42.917 L39.58,42.917 Z M26.065,22.701 L35.748,22.701 C42.829,22.701 48.32,22.843 52.729,25.175 C56.704,27.368 59.017,31.183 59.017,35.848 C59.017,41.857 55.403,45.462 48.177,46.664 C56.558,47.865 60.823,52.034 60.823,58.822 C60.823,63.769 58.222,68.152 53.958,70.415 C48.754,73.172 42.54,73.24 34.52,73.24 L26.065,73.24 L26.065,22.701 Z" id="Fill-42" fill="#F7C33E"></path>
                <path d="M87.484,37.686 C87.194,36.84 86.691,34.576 86.04,30.901 C85.318,34.929 84.738,37.262 84.519,37.899 L78.956,54.015 L93.265,54.015 L87.484,37.686 Z M80.041,22.701 L92.686,22.701 L112.628,73.24 L100.057,73.24 L95.865,62.499 L75.85,62.499 L72.238,73.24 L60.388,73.24 L80.041,22.701 Z" id="Fill-43" fill="#F7C33E"></path>
                <path d="M87.484,37.686 C87.194,36.84 86.691,34.576 86.04,30.901 C85.318,34.929 84.738,37.262 84.519,37.899 L78.956,54.015 L93.265,54.015 L87.484,37.686 Z M80.041,22.701 L92.686,22.701 L112.628,73.24 L100.057,73.24 L95.865,62.499 L75.85,62.499 L72.238,73.24 L60.388,73.24 L80.041,22.701 Z" id="Fill-44" fill="#F7C33E"></path>
                <path d="M128.09,44.261 C134.956,44.261 139.073,43.693 139.073,37.828 C139.073,31.961 135.1,30.971 128.09,30.971 L126.429,30.971 L126.429,44.261 L128.09,44.261 Z M140.014,73.24 L126.429,49.633 L126.429,73.24 L115.374,73.24 L115.374,22.701 L131.201,22.701 C143.772,22.701 149.985,27.509 149.985,37.05 C149.985,44.048 145.216,49.421 138.497,50.268 L152.732,73.24 L140.014,73.24 Z" id="Fill-45" fill="#F7C33E"></path>
                <path d="M171.879,64.829 C177.514,64.829 180.334,62.357 180.334,57.832 C180.334,53.661 177.514,51.26 172.022,51.26 L167.544,51.26 L167.544,64.829 L171.879,64.829 Z M170.001,42.917 C176.14,42.917 179.177,41.574 179.177,36.909 C179.177,32.385 176.432,31.043 170.218,31.043 L167.544,31.043 L167.544,42.917 L170.001,42.917 Z M156.489,22.701 L166.169,22.701 C173.252,22.701 178.745,22.843 183.151,25.175 C187.125,27.368 189.438,31.183 189.438,35.848 C189.438,41.857 185.822,45.462 178.598,46.664 C186.98,47.865 191.242,52.034 191.242,58.822 C191.242,63.769 188.641,68.152 184.379,70.415 C179.177,73.172 172.963,73.24 164.942,73.24 L156.489,73.24 L156.489,22.701 Z" id="Fill-46" fill="#F7C33E"></path>
                <path d="M237.168,48.078 C237.168,38.748 230.446,31.112 220.981,31.112 C211.372,31.112 204.722,38.748 204.722,48.078 C204.722,57.478 211.08,64.971 220.981,64.971 C230.589,64.971 237.168,57.478 237.168,48.078 Z M240.491,66.809 C235.144,71.83 228.205,74.586 220.981,74.586 C214.622,74.586 208.407,72.392 203.425,68.503 C196.918,63.417 193.38,56.134 193.38,48.078 C193.38,40.867 196.123,34.364 201.399,29.345 C206.599,24.397 213.757,21.57 220.981,21.57 C228.205,21.57 235.287,24.397 240.491,29.345 C245.767,34.364 248.511,40.937 248.511,48.078 C248.511,55.287 245.695,61.932 240.491,66.809 Z" id="Fill-47" fill="#F7C33E"></path>
                <path d="M296.852,54.158 C296.852,67.796 289.551,74.586 274.593,74.586 C259.489,74.586 252.192,67.869 252.192,54.158 L252.192,22.701 L263.176,22.701 L263.176,52.459 C263.176,60.871 267.006,65.042 274.45,65.042 C281.961,65.042 285.864,60.729 285.864,52.459 L285.864,22.701 L296.852,22.701 L296.852,54.158" id="Fill-48" fill="#F7C33E"></path>
                <path d="M313.412,44.261 C320.281,44.261 324.394,43.693 324.394,37.828 C324.394,31.961 320.425,30.971 313.412,30.971 L311.754,30.971 L311.754,44.261 L313.412,44.261 Z M325.337,73.24 L311.754,49.633 L311.754,73.24 L300.7,73.24 L300.7,22.701 L316.524,22.701 C329.096,22.701 335.311,27.509 335.311,37.05 C335.311,44.048 330.541,49.421 323.819,50.268 L338.054,73.24 L325.337,73.24 Z" id="Fill-49" fill="#F7C33E"></path>
                <polygon id="Fill-50" fill="#F7C33E" points="18.607 114.474 25.048 114.474 25.048 86.467 18.607 86.467"></polygon>
                <path d="M29.118,86.467 L35.811,86.467 L49.115,102.763 C49.874,103.662 50.799,105.306 51.809,107.661 C51.39,105.266 51.39,103.467 51.39,102.135 L51.39,86.467 L57.537,86.467 L57.537,114.474 L51.221,114.474 L37.54,97.864 C36.778,96.963 35.854,95.279 34.843,92.931 C35.265,95.279 35.265,97.119 35.265,98.49 L35.265,114.474 L29.118,114.474 L29.118,86.467" id="Fill-51" fill="#F7C33E"></path>
                <polyline id="Fill-52" fill="#F7C33E" points="74.965 114.474 68.524 114.474 68.524 91.557 61.156 91.557 61.156 86.467 82.376 86.467 82.376 91.557 74.965 91.557 74.965 114.474"></polyline>
                <polyline id="Fill-53" fill="#F7C33E" points="86.038 86.467 103.76 86.467 103.76 91.52 92.479 91.52 92.479 97.277 103.76 97.277 103.76 102.369 92.479 102.369 92.479 109.381 103.76 109.381 103.76 114.474 86.038 114.474 86.038 86.467"></polyline>
                <path d="M116.984,98.413 C120.983,98.413 123.383,98.101 123.383,94.85 C123.383,91.599 121.066,91.049 116.984,91.049 L116.016,91.049 L116.016,98.413 L116.984,98.413 Z M123.929,114.474 L116.016,101.39 L116.016,114.474 L109.573,114.474 L109.573,86.467 L118.794,86.467 C126.12,86.467 129.738,89.132 129.738,94.419 C129.738,98.299 126.961,101.272 123.046,101.743 L131.339,114.474 L123.929,114.474 Z" id="Fill-54" fill="#F7C33E"></path>
                <path d="M134.581,86.467 L141.274,86.467 L154.578,102.763 C155.337,103.662 156.262,105.306 157.272,107.661 C156.852,105.266 156.852,103.467 156.852,102.135 L156.852,86.467 L162.998,86.467 L162.998,114.474 L156.684,114.474 L143,97.864 C142.244,96.963 141.319,95.279 140.309,92.931 C140.727,95.279 140.727,97.119 140.727,98.49 L140.727,114.474 L134.581,114.474 L134.581,86.467" id="Fill-55" fill="#F7C33E"></path>
                <path d="M181.397,94.768 C181.228,94.301 180.936,93.05 180.556,91.007 C180.134,93.243 179.798,94.538 179.671,94.89 L176.429,103.819 L184.764,103.819 L181.397,94.768 Z M177.061,86.467 L184.428,86.467 L196.052,114.474 L188.724,114.474 L186.281,108.52 L174.618,108.52 L172.512,114.474 L165.611,114.474 L177.061,86.467 Z" id="Fill-56" fill="#F7C33E"></path>
                <polyline id="Fill-57" fill="#F7C33E" points="207.356 114.474 200.915 114.474 200.915 91.557 193.551 91.557 193.551 86.467 214.766 86.467 214.766 91.557 207.356 91.557 207.356 114.474"></polyline>
                <polygon id="Fill-58" fill="#F7C33E" points="218.516 114.474 224.954 114.474 224.954 86.467 218.516 86.467"></polygon>
                <path d="M255.479,100.525 C255.479,95.357 251.564,91.128 246.046,91.128 C240.449,91.128 236.575,95.357 236.575,100.525 C236.575,105.74 240.278,109.89 246.046,109.89 C251.645,109.89 255.479,105.74 255.479,100.525 Z M257.418,110.91 C254.299,113.69 250.257,115.22 246.046,115.22 C242.346,115.22 238.722,114.005 235.821,111.847 C232.031,109.028 229.967,104.994 229.967,100.525 C229.967,96.534 231.563,92.931 234.636,90.15 C237.671,87.404 241.838,85.84 246.046,85.84 C250.257,85.84 254.387,87.404 257.418,90.15 C260.485,92.931 262.09,96.574 262.09,100.525 C262.09,104.524 260.444,108.208 257.418,110.91 Z" id="Fill-59" fill="#F7C33E"></path>
                <path d="M266.979,86.467 L273.664,86.467 L286.969,102.763 C287.728,103.662 288.653,105.306 289.667,107.661 C289.245,105.266 289.245,103.467 289.245,102.135 L289.245,86.467 L295.388,86.467 L295.388,114.474 L289.075,114.474 L275.393,97.864 C274.634,96.963 273.71,95.279 272.7,92.931 C273.121,95.279 273.121,97.119 273.121,98.49 L273.121,114.474 L266.979,114.474 L266.979,86.467" id="Fill-60" fill="#F7C33E"></path>
                <path d="M313.748,94.768 C313.577,94.301 313.286,93.05 312.904,91.007 C312.482,93.243 312.148,94.538 312.023,94.89 L308.78,103.819 L317.115,103.819 L313.748,94.768 Z M309.411,86.467 L316.779,86.467 L328.4,114.474 L321.072,114.474 L318.634,108.52 L306.969,108.52 L304.866,114.474 L297.96,114.474 L309.411,86.467 Z" id="Fill-61" fill="#F7C33E"></path>
                <polyline id="Fill-62" fill="#F7C33E" points="331.008 86.467 337.452 86.467 337.452 109.381 347.726 109.381 347.726 114.474 331.008 114.474 331.008 86.467"></polyline>
                <path d="M18.373,3.5 C10.174,3.5 3.501,10.372 3.501,18.818 L3.495,121.556 L3.501,121.552 C3.501,129.998 10.174,136.868 18.373,136.868 L348.192,136.868 C356.396,136.868 363.063,129.998 363.063,121.552 L363.073,18.822 L363.063,18.818 C363.063,10.372 356.396,3.5 348.192,3.5 L18.373,3.5 Z M348.192,0.258 C358.183,0.258 366.311,8.585 366.311,18.818 L366.314,18.822 L366.311,121.552 C366.311,131.785 358.183,140.112 348.192,140.112 L18.373,140.112 C8.387,140.112 0.26,131.785 0.26,121.552 L0.253,121.556 L0.26,18.818 C0.26,8.585 8.387,0.258 18.373,0.258 L348.192,0.258 Z" id="Fill-63" fill="#F7C33E"></path>
            </g>
        </g>
    </g>
</svg>