
<svg width="802px" height="364px" viewBox="0 0 802 364" version="1.1" xmlns="http://www.w3.org/2000/svg" xmlns:xlink="http://www.w3.org/1999/xlink">
    <defs>
        <polygon id="path-1" points="0.06 0.387 665.967 0.387 665.967 364 0.06 364"></polygon>
    </defs>
    <g id="Page-1" stroke="none" stroke-width="1" fill="none" fill-rule="evenodd">
        <g id="Edited" transform="translate(0.000000, -3975.000000)">
            <g id="Logo---Jofama" transform="translate(0.000000, 3975.000000)">
                <path d="M171.618,323.01 C171.618,335.588 173.553,350.045 177.425,355.687 C180.327,359.719 183.873,361.291 188.067,361.291 C192.096,361.291 195.93,360.142 198.709,356.293 C203.871,349.14 203.307,329.469 203.307,322.695 L203.307,27.791 C203.307,19.083 201.287,12.152 197.257,6.99 C194.515,3.284 191.049,1.755 186.857,1.755 C183.146,1.755 179.923,3.202 177.182,6.747 C173.471,11.584 171.618,18.6 171.618,27.791 L171.618,323.01 Z M255.067,136.04 L255.067,225.291 C255.067,276.732 246.923,314.303 230.638,338.008 C219.349,354.453 205.241,362.678 188.309,362.678 C176.858,362.678 166.298,358.566 156.622,350.342 C146.947,342.119 139.367,330.023 133.887,314.06 C125.017,288.422 120.583,259.965 120.583,228.678 L120.583,124.188 C120.583,75.492 128.724,48.363 145.013,24.816 C156.298,8.531 170.248,0.387 186.857,0.387 C194.918,0.387 202.338,2.201 209.11,5.83 C215.883,9.458 235.079,24.96 241.643,40.618 C246.397,51.96 248.938,64.124 250.712,76.538 C253.614,97.665 255.067,117.498 255.067,136.04 Z" id="Fill-1" fill="#1A1919"></path>
                <path d="M271.329,1.755 L262.689,1.755 L262.689,0.387 L389.848,0.387 L389.848,129.809 L389.406,129.782 C389.406,129.782 380.075,82.638 374.086,59.864 C368.097,37.09 362.433,21.595 357.091,13.387 C354.336,9.203 351.018,6.626 347.133,4.774 C343.248,2.922 337.263,1.755 329.167,1.755 L320.912,1.755 L320.912,171.595 C328.547,170.954 335.046,166.357 340.411,157.811 C348.536,144.748 352.157,124.512 352.157,97.097 L352.157,83.793 L353.101,83.793 L353.101,265.203 L352.157,265.203 L352.157,243.676 C352.157,220.295 348.614,202.478 340.656,190.221 C335.456,182.321 328.873,178.209 320.912,177.884 L320.912,357.68 L329.494,357.68 L329.526,359.051 L262.69,359.051 L262.68,357.68 L271.329,357.68 L271.329,1.755" id="Fill-2" fill="#1A1919"></path>
                <path d="M417.01,90.568 L392.235,282.709 L436.343,282.709 L417.01,90.568 Z M425.806,0.347 L449.95,0.347 L493.08,357.68 L501.646,357.68 L501.646,359.051 L434.007,359.051 L434.007,357.68 L442.77,357.68 L436.489,284.068 L392.057,284.068 L387.039,322.998 C386.876,325.096 386.796,327.273 386.796,329.533 C386.796,336.631 388.414,342.312 390.98,346.017 C397.554,355.517 406.318,357.332 411.049,357.68 L411.049,359.051 L354.084,359.051 L354.084,357.68 C356.274,357.68 365.253,357.166 374.077,346.23 C378.372,340.906 383.217,331.234 384.831,318.172 L425.806,0.347 Z" id="Fill-3" fill="#1A1919"></path>
                <path d="M717.36,90.568 L692.583,282.709 L736.692,282.709 L717.36,90.568 Z M726.156,0.347 L750.298,0.347 L793.428,357.68 L801.996,357.68 L801.996,359.051 L734.357,359.051 L734.357,357.68 L743.12,357.68 L736.837,284.068 L692.407,284.068 L687.388,322.998 C687.226,325.096 687.146,327.273 687.146,329.533 C687.146,336.631 688.763,342.312 691.33,346.017 C697.904,355.517 706.667,357.332 711.399,357.68 L711.399,359.051 L654.433,359.051 L654.433,357.68 C656.624,357.68 665.602,357.166 674.425,346.23 C678.721,340.906 683.566,331.234 685.18,318.172 L726.156,0.347 Z" id="Fill-4" fill="#1A1919"></path>
                <g id="Group-8">
                    <mask id="mask-2" fill="white">
                        <use xlink:href="#path-1"></use>
                    </mask>
                    <g id="Clip-6"></g>
                    <path d="M506.497,1.755 L497.804,1.755 L497.81,0.387 L550.509,0.387 L583.253,216.389 L610.961,0.387 L665.911,0.387 L665.911,1.755 L657.285,1.755 L657.285,357.68 L665.967,357.68 L665.967,359.051 L601.399,359.051 L601.399,357.68 L610.116,357.68 L610.116,17.917 L566.175,359.051 L565.284,359.051 L509.496,20.423 L509.496,327.123 C509.496,335.508 510.137,341.504 512.038,344.777 C517.959,354.994 531.749,357.68 531.749,357.68 L531.752,359.051 L483.853,359.051 L483.853,357.68 C495.182,356.142 501.092,348.088 502.87,345.019 C505.287,340.83 506.497,334.863 506.497,327.123 L506.497,1.755" id="Fill-5" fill="#1A1919" mask="url(#mask-2)"></path>
                    <path d="M45.567,0.387 L45.567,1.755 L54.212,1.755 L54.212,319.623 C54.212,331.881 52.135,341.474 46.656,348.408 C42.624,353.406 36.27,357.431 29.375,358.123 C21.15,358.947 9.505,356.701 0.279,348.178 L0,348.515 C9.907,357.07 23.98,364 38.705,364 C57.411,364 74.893,356.715 86.745,344.777 C98.597,332.847 104.522,317.365 104.522,298.34 L104.522,1.755 L113.2,1.755 L113.2,0.387 L45.567,0.387" id="Fill-7" fill="#1A1919" mask="url(#mask-2)"></path>
                </g>
            </g>
        </g>
    </g>
</svg>