
<svg width="245px" height="29px" viewBox="0 0 245 29" version="1.1" xmlns="http://www.w3.org/2000/svg" xmlns:xlink="http://www.w3.org/1999/xlink">
    <g id="Page-1" stroke="none" stroke-width="1" fill="none" fill-rule="evenodd">
        <g id="no-need-to-edit" transform="translate(-279.000000, -2496.000000)" fill="#1A1919">
            <g id="Logo---Gant" transform="translate(279.000000, 2496.000000)">
                <polyline id="Fill-1" points="180.081 24.286 132.538 1.186 129.196 1.186 129.196 27.891 132.41 27.891 132.41 4.558 179.953 27.891 183.294 27.891 183.294 1.186 180.081 1.186 180.081 24.286"></polyline>
                <polyline id="Fill-2" points="191.583 1.186 191.583 4.143 216.511 4.143 216.511 27.891 219.724 27.891 219.724 4.143 244.65 4.143 244.65 1.186 191.583 1.186"></polyline>
                <path d="M76.523,17.858 L91.255,4.629 L105.985,17.858 L76.523,17.858 Z M117.155,27.891 L121.651,27.891 L91.255,0.307 L60.857,27.891 L65.352,27.891 L73.483,20.817 L109.024,20.817 L117.155,27.891 Z" id="Fill-3"></path>
                <path d="M25.007,13.514 L25.007,16.376 L51.851,16.376 L51.851,22.09 C47.204,24.177 40.475,25.79 30.423,25.79 C18.43,25.79 4.141,22.098 4.141,14.435 C4.141,6.773 18.742,3.286 29.795,3.286 C39.536,3.286 47.436,5.407 51.95,7.972 L53.832,5.373 C49.07,2.788 40.772,0.423 29.795,0.423 C16.255,0.423 0.346,5.159 0.346,14.435 C0.346,23.71 16.034,28.654 30.423,28.654 C40.414,28.654 48.591,27.072 55.193,23.809 L55.193,13.514 L25.007,13.514" id="Fill-4"></path>
            </g>
        </g>
    </g>
</svg>