<svg width="1035px" height="567px" viewBox="0 0 1035 567" version="1.1" xmlns="http://www.w3.org/2000/svg" xmlns:xlink="http://www.w3.org/1999/xlink">
    <g id="Page-1" stroke="none" stroke-width="1" fill="none" fill-rule="evenodd">
        <g id="Edited" transform="translate(-70.000000, -3341.000000)">
            <g id="fred-perry-seeklogo.com" transform="translate(70.000000, 3341.000000)">
                <path d="M0,502.115326 L0,437.730653 L88.0500624,437.730653 L88.0500624,461.786465 L27.5156445,461.786465 L27.5156445,491.502468 L79.7953691,491.502468 L79.7953691,514.143232 L27.5156445,514.143232 L27.5156445,566.5 L0,566.5 L0,502.115326 Z M99.0563203,501.999292 L99.0563203,437.5 L137.922168,437.999512 C180.739263,438.549965 181.87841,438.756562 191.907863,447.814283 C199.29031,454.480573 202.633461,462.949634 202.56192,474.794999 C202.486252,487.25591 198.579031,495.884871 190.298197,501.888919 L184.273647,506.255756 L188.799971,508.644357 C196.064101,512.477721 199.547581,520.57321 201.095336,537.219832 C201.832756,545.151174 203.238805,554.985756 204.218362,559.070999 L206,566.5 L192.573741,566.5 C181.40239,566.5 179.00165,566.110862 178.282115,564.180737 C177.806095,562.905779 176.804525,555.781013 176.054724,548.349182 C174.275838,530.709197 172.765229,525.307959 168.442521,521.126493 C165.078733,517.871883 163.821269,517.655381 145.726981,517.219546 L126.571965,516.759656 L126.571965,566.5 L99.0563203,566.5 L99.0563203,501.999292 Z" id="Shape" fill="#1C1C24" fill-rule="nonzero"></path>
                <path d="M170.657773,492.4464 C175.976701,489.75088 177.873643,486.00816 177.997145,477.96376 C178.108158,470.72176 174.978969,465.1784 169.109136,462.22176 C166.963802,461.14056 159.215068,460.53536 147.386592,460.52176 L129,460.5 L129,494.5 L147.802892,494.5 C161.858574,494.5 167.627107,493.98184 170.657773,492.4464 Z" id="Path" fill="#FFFFFF"></path>
                <path d="M218,502.159081 L218,437.819576 L313.36303,437.819576 L313.36303,461.858512 L246.04795,461.858512 L246.04795,490.139613 L307.75344,490.139613 L307.75344,511.350439 L246.04795,511.350439 L246.04795,542.45965 L314.765428,542.45965 L314.765428,566.498586 L218,566.498586 L218,502.159081 Z M324.58221,501.999293 L324.58221,437.5 L358.59035,438.17309 C396.495752,438.921125 401.329816,439.817636 413.654085,448.376911 C422.27883,454.365435 428.910767,463.244286 433.009975,474.285228 C435.552522,481.132083 436.008301,485.379904 435.999887,502.160495 C435.991472,519.464287 435.58618,522.978214 432.781385,530.0697 C427.934699,542.329557 421.486475,551.045792 412.933253,556.905636 C400.782881,565.22735 393.30109,566.5 356.542849,566.5 L324.58221,566.5 L324.58221,501.999293 Z" id="Shape" fill="#1C1C24" fill-rule="nonzero"></path>
                <path d="M399.482294,538.116703 C403.226759,535.471487 407.117075,530.909468 409.351046,526.541887 C412.689729,520.020987 413.036305,517.744331 412.997315,502.614508 C412.959769,487.992544 412.522217,485.007788 409.512782,478.839487 C403.054915,465.598897 391.570252,460.5 368.202364,460.5 L356,460.5 L356,543.5 L374.651566,542.992142 C392.677851,542.500245 393.50819,542.33773 399.482294,538.116703 Z" id="Path" fill="#FFFFFF"></path>
                <path d="M476,502.001414 L476,437.5 L510.828835,438.130841 C538.846697,438.638626 546.911507,439.227034 552.070397,441.14219 C570.38966,447.945659 580.35141,467.928905 575.976346,489.103112 C573.408159,501.543135 567.181186,509.710127 555.940267,515.384871 C546.805965,519.997368 545.884233,520.162858 525.333109,520.89554 L504.144513,521.649438 L504.144513,566.5 L476,566.5 L476,502.001414 Z" id="Path" fill="#1C1C24"></path>
                <path d="M542.171436,493.779466 C547.555485,490.620365 550.105297,485.404076 549.996673,477.768882 C549.800863,463.948161 542.250045,459.5 518.978719,459.5 L504,459.5 L504,497.5 L520.793888,496.983259 C534.176116,496.574056 538.518229,495.923242 542.171436,493.779466 Z" id="Path" fill="#FFFFFF"></path>
                <path d="M582,502.11603 L582,437.733475 L676.935681,437.733475 L676.935681,461.788496 L609.821739,461.788496 L610.221027,475.584757 L610.620316,489.381019 L640.985773,489.76307 L671.35123,490.14512 L671.35123,511.313538 L609.922259,511.313538 L609.922259,542.443564 L678.331794,542.443564 L678.331794,566.498585 L582,566.498585 L582,502.11603 Z M689.500698,501.998585 L689.500698,437.5 L728.346145,437.96978 L767.190196,438.440976 L775.283463,442.685979 C785.211222,447.893184 790.818012,455.35024 793.103449,466.394325 C796.237722,481.539083 790.644894,496.37537 779.228878,503.202751 L774.409496,506.085108 L778.375853,507.798675 C787.451983,511.719643 791.010675,520.044095 792.726498,541.370994 C793.431535,550.132681 794.681056,559.093884 795.504763,561.284306 C796.327074,563.476142 797,565.544874 797,565.883059 C797,566.221245 790.767752,566.5 783.149163,566.5 L769.299723,566.5 L768.487185,562.608747 C768.040429,560.46785 767.049189,552.481583 766.285515,544.858972 C764.783297,529.859959 762.803609,524.515499 757.050228,519.92948 C753.712122,517.267863 751.493698,516.974958 734.684498,516.974958 L716.026844,516.974958 L716.026844,566.5 L689.500698,566.5 L689.500698,501.998585 Z" id="Shape" fill="#1C1C24" fill-rule="nonzero"></path>
                <path d="M763.525263,489.906538 C770.77512,481.568804 768.932214,467.257 760.044674,462.869074 C756.209734,460.977331 751.645566,460.505409 737.128065,460.502704 L719,460.5 L719,494.5 L739.644103,494.064588 C760.243057,493.630528 760.296415,493.622415 763.525263,489.906538 Z" id="Path" fill="#FFFFFF"></path>
                <path d="M812,501.998585 L812,437.5 L851.502886,437.999506 C895.013393,438.549954 896.181001,438.757964 906.358063,447.801435 C913.983169,454.576609 916.806402,461.745163 916.844157,474.428097 C916.881911,487.787416 913.384682,495.718672 904.737396,501.888212 L898.614099,506.255002 L903.213214,508.643576 C910.982348,512.677833 914.081052,520.341648 916.200924,540.746413 C917.2273,550.628998 918.72771,560.469133 919.534548,562.608661 L921,566.5 L893.209545,566.5 L891.897909,561.193629 C891.174971,558.275833 890.189147,551.125675 889.708121,545.304232 C888.57687,531.683131 886.529711,524.939088 882.301155,520.914736 C879.154907,517.920528 877.460128,517.646012 859.434227,517.220087 L839.966645,516.758786 L839.966645,566.498585 L812,566.498585 L812,501.998585 Z" id="Path" fill="#1C1C24"></path>
                <path d="M881.475613,492.52392 C888.900148,488.75808 891.539089,474.63448 886.148882,467.51216 C881.521375,461.3976 878.11696,460.5408 858.37413,460.51904 L840,460.5 L840,494.5 L858.790149,494.5 C872.50765,494.5 878.630049,493.96688 881.475613,492.52392 Z" id="Path" fill="#FFFFFF"></path>
                <path d="M959.821193,542.194132 L959.821193,517.888264 L936.208929,478.757319 C923.224027,457.235582 912.334243,439.148648 912.010826,438.563187 C911.687409,437.977725 918.6508,437.5 927.482349,437.5 L943.542547,437.5 L958.199854,462.307692 C966.26116,475.951923 973.274198,487.102626 973.784856,487.087033 C974.294096,487.072857 981.136915,476.069582 988.988284,462.633736 L1003.26402,438.208791 L1019.1313,437.807615 C1027.85788,437.58789 1035,437.636088 1035,437.915352 C1035,438.194615 1024.14851,456.451659 1010.88559,478.485143 L986.771176,518.546022 L986.771176,566.5 L959.821193,566.5 L959.821193,542.194132 Z" id="Path" fill="#1C1C24"></path>
                <path d="M247.473129,394.189655 C245.500762,392.418788 240.322439,385.612192 235.962834,379.061388 C231.603229,372.511989 226.409744,366.22822 224.420838,365.099644 C221.021917,363.16996 220.478861,363.310505 215.379102,367.42988 C212.393675,369.840228 206.27672,376.594822 201.783418,382.445712 C193.851225,392.772961 191.469499,394.34566 187.575764,391.829904 C184.686819,389.963466 188.452371,385.135744 202.60765,372.56118 C217.565107,359.272646 217.223285,356.50672 201.543592,363.975283 C186.435899,371.169784 176.637469,373.533751 158.431328,374.367183 C143.18029,375.065692 135,373.820463 135,370.802961 C135,370.105858 139.256232,367.25701 144.457986,364.467191 C164.604793,353.673332 193.83882,350.540583 212.841627,357.140578 L222.456741,360.481334 L228.692231,357.305016 C240.474054,351.303743 254.560416,349.331896 272.613565,351.151954 C291.30763,353.036663 316.197213,361.902244 317.935266,367.297768 C319.295661,371.521146 298.965539,374.04393 280.412062,371.954025 C267.982432,370.554196 258.401776,367.858543 238.656058,360.208676 C234.226159,358.48981 232.045667,358.290236 229.998872,359.40757 C227.468288,360.787722 228.156067,361.92192 239.166034,374.530216 C245.713023,382.026888 251.934729,388.667641 252.991896,389.284634 C255.454942,390.72522 255.450807,393.686504 252.985004,395.773598 C251.474373,397.053963 250.28351,396.711033 247.473129,394.189655 Z" id="Path" fill="#96825C"></path>
                <path d="M99.7394228,357.489191 C95.9159648,356.458468 91.259688,354.710655 89.3938404,353.603808 L86,351.588037 L89.7608924,348.046736 C102.027936,336.491072 147.05715,332.461053 165.277666,341.286901 L172,344.54502 L167.847029,347.39359 C153.112117,357.505938 118.731582,362.601697 99.7394228,357.489191 Z" id="Path" fill="#96825C"></path>
                <path d="M197.941822,354.606604 C175.075171,346.744857 143,316.342178 143,302.532273 C143,299.234604 143.359496,299.050747 147.996314,299.995039 C153.769954,301.168785 168.640874,309.084955 175.558117,314.665398 C188.772642,325.326192 201.399765,341.449761 205.286391,352.625356 C206.910227,357.296807 206.271274,357.470369 197.941822,354.606604 Z" id="Path" fill="#96825C"></path>
                <path d="M298.936878,352.121301 C291.318537,350.692249 280.577626,346.817619 275.495935,343.662185 L272,341.490587 L279.691057,337.572369 C293.624455,330.472254 315.342602,328.540387 335.712715,332.586254 C346.173951,334.664451 358,340.042854 358,342.723494 C358,344.944907 346.670374,350.429166 338.533236,352.147765 C329.945821,353.962879 308.677951,353.947312 298.936878,352.121301 Z" id="Path" fill="#96825C"></path>
                <path d="M230.3638,348.301424 C235.820109,333.586918 255.890469,315.089694 277.717127,304.656415 C287.997933,299.740722 299,297.89539 299,301.083297 C299,307.636138 284.462619,324.1719 270.165186,333.882907 C259.262505,341.288312 242.973086,348.86083 235.436762,350.026377 C229.913722,350.883189 229.463644,350.727405 230.3638,348.301424 Z" id="Path" fill="#96825C"></path>
                <path d="M88.3805219,329.593099 C70.780626,327.001777 48.3075194,317.05008 46.0835889,310.861288 C45.2540163,308.551207 50.6300409,306.350915 60.8370228,304.822893 C69.7764065,303.484369 90.9523377,306.462208 104.029725,310.895879 C114.638113,314.491846 129,323.091484 129,325.846737 C128.998592,329.561516 103.890289,331.876109 88.3805219,329.593099 Z" id="Path" fill="#96825C"></path>
                <path d="M321.319494,325.148157 C314.173758,323.992556 314.213943,322.34491 321.520418,317.091283 C337.053315,305.920471 363.009886,298.695855 384.467184,299.571694 C398.734257,300.156523 401.662013,301.885708 396.861354,306.891907 C387.917344,316.21685 362.237762,324.543645 339.976766,325.333728 C332.083305,325.614896 323.687532,325.530546 321.319494,325.148157 Z" id="Path" fill="#96825C"></path>
                <path d="M133.539533,320.759657 C123.269602,313.773667 112.1694,300.224234 103.624339,284.247263 C97.5401718,272.869321 95.9155331,268.312267 95.27226,260.811388 C94.8339366,255.690474 94.9356636,251.5 95.4996496,251.5 C101.633184,251.5 118.718819,267.747008 127.685747,282.107953 C135.554624,294.710157 141.541552,311.523823 140.96111,319.392681 L140.509323,325.5 L133.539533,320.759657 Z" id="Path" fill="#96825C"></path>
                <path d="M304,318.054652 C304,305.750836 311.896737,285.98077 323.008627,270.466466 C329.724196,261.089983 344.602451,247.5 348.151897,247.5 C351.728086,247.5 349.829303,263.118549 344.901086,274.265801 C337.060807,291.996032 318.416188,314.945593 307.250811,320.611491 C304.245148,322.13855 304,321.945555 304,318.054652 Z" id="Path" fill="#96825C"></path>
                <path d="M94.4689617,307.183067 C78.1076247,301.488237 60.7196217,289.994959 49.3339942,277.347873 C42.6897748,269.967138 38.5561303,261.869474 40.4688817,259.983333 C42.5662341,257.915159 58.0556859,262.778238 69.1147114,268.975759 C82.0921683,276.250074 99.3310705,291.874099 104.850643,301.362215 C107.125497,305.274522 108.992808,308.947386 108.999908,309.52429 C109.024048,311.367023 104.30962,310.606686 94.4689617,307.183067 Z" id="Path" fill="#96825C"></path>
                <path d="M341.494585,295.494247 C347.572447,275.665941 383.196705,245.383722 404.392324,242.026518 C410.413992,241.072966 410.557436,241.143274 409.491222,244.554674 C405.851899,256.193569 395.194197,269.245947 380.231713,280.386827 C369.267901,288.549872 353.77305,296.504924 346.034497,297.941842 C340.635403,298.945195 340.465341,298.852916 341.494585,295.494247 Z" id="Path" fill="#96825C"></path>
                <path d="M80.4413308,262.089326 C68.8182125,245.575692 62.2941081,222.635957 63.0607891,200.984875 C63.6211686,185.130585 65.224761,181.891075 70.3296275,186.303388 C75.0833425,190.412488 84.1386647,210.417355 86.9800665,223.083624 C89.7892794,235.61259 89.6312612,264.25615 86.7371866,267.085179 C85.5183979,268.278005 83.8855429,266.983631 80.4413308,262.089326 Z" id="Path" fill="#96825C"></path>
                <path d="M353.825874,257.20823 C351.095662,249.466071 351.510396,220.381805 354.514753,208.863843 C357.984455,195.565961 366.355041,178.945372 369.297539,179.514213 C377.842454,181.165685 376.501248,222.326873 367.167637,244.857475 C364.277156,251.833181 357.912755,262.495765 356.637626,262.5 C356.117452,262.5 354.852163,260.118774 353.825874,257.20823 Z" id="Path" fill="#96825C"></path>
                <path d="M54.1385116,253.952223 C31.3680803,246.013065 3.9945456,223.121286 0.488693588,209.085864 C-0.501508888,205.122655 -0.491649119,205.116993 5.45801696,205.919543 C14.2064488,207.098597 32.9921251,216.706549 44.2829686,225.775221 C54.1272433,233.683239 62.2869061,243.202018 66.6787288,251.899846 L69,256.5 L65.091306,256.454706 C62.9404679,256.429228 58.0119922,255.302545 54.1385116,253.952223 Z" id="Path" fill="#96825C"></path>
                <path d="M370.000056,248.833622 C370.023344,245.524228 377.762894,232.399908 384.284665,224.611801 C395.995358,210.625567 416.388047,196.328985 427.94806,194.000642 C432.697267,193.044595 433,193.207859 433,196.729054 C433,202.61095 422.15915,218.160689 410.995019,228.294788 C395.473452,242.383981 369.956222,255.168538 370.000056,248.833622 Z" id="Path" fill="#96825C"></path>
                <path d="M48.0583552,221.066819 C29.7412409,207.074436 12.8416643,179.830437 11.2093907,161.666826 C10.7757083,156.839815 11.0311458,153.5 11.8325459,153.5 C15.5504246,153.5 27.5910747,163.675248 34.9889377,173.071489 C48.1229164,189.752153 57.9937512,212.241377 56.9200716,223.046913 L56.4779682,227.5 L48.0583552,221.066819 Z" id="Path" fill="#96825C"></path>
                <path d="M381.319083,206.52009 C382.960114,188.126189 396.444113,160.924612 410.461749,147.7285 C419.506809,139.21348 421.035495,139.346505 420.999384,148.637273 C420.939199,164.499492 409.064131,189.018159 393.535197,205.348067 C388.225587,210.93233 383.124618,215.499999 382.199114,215.499999 C380.94059,215.5014 380.718576,213.24557 381.319083,206.52009 Z" id="Path" fill="#96825C"></path>
                <path d="M57.3693117,182.174429 C59.0030714,161.644968 70.5463532,135.160883 83.4655097,122.305828 C92.9032196,112.9159 95,113.148802 95,123.586789 C95,141.906521 81.9225958,171.82307 67.7770205,185.866778 C63.5482935,190.064695 59.2741436,193.5 58.2792352,193.5 C56.918013,193.5 56.6923637,190.685294 57.3693117,182.174429 Z" id="Path" fill="#96825C"></path>
                <path d="M378.929776,174.480706 C365.122789,164.588471 351.102877,145.154118 344.472013,126.717882 C340.868126,116.692941 339.85242,106.5 342.459304,106.5 C351.905659,106.5 371.622733,129.948 381.240292,152.619529 C385.881465,163.559294 388.609197,178.5 385.964908,178.5 C385.182268,178.5 382.015739,176.691529 378.929776,174.480706 Z" id="Path" fill="#96825C"></path>
                <path d="M43.1158047,171.565201 C30.0300434,160.389298 15.0194952,133.498106 11.9719159,115.769179 C9.21863379,99.7491319 12.1936848,97.4571741 22.4522411,107.692359 C31.1639939,116.384265 41.0878046,132.76891 45.7114775,146.090654 C49.9571668,158.325562 52.2850431,173.272689 50.2584378,175.294677 C49.4815492,176.071188 46.6752657,174.605838 43.1158047,171.565201 Z" id="Path" fill="#96825C"></path>
                <path d="M390.912664,160.454304 C389.142217,155.640253 390.068966,137.840641 392.6462,127.174078 C396.031537,113.161062 404.55025,95.1262491 411.257648,87.7690028 C417.818717,80.5740589 418.970892,81.855972 418.999894,96.3779025 C419.036806,115.25036 409.413377,142.013736 397.519873,156.116156 C392.727933,161.796737 391.664082,162.496838 390.912664,160.454304 Z" id="Path" fill="#96825C"></path>
                <path d="M50.5960717,132.032271 C38.9141109,111.860135 34.2480807,74.4222108 41.3779887,58.0691956 L43.8066883,52.5 L47.7269416,57.7003841 C52.66314,64.2507037 57.8329212,79.1569527 59.9562745,92.9653111 C62.6073001,110.199772 59.8690327,138.5 55.5505627,138.5 C54.8849921,138.5 52.6561043,135.58938 50.5960717,132.032271 Z" id="Path" fill="#96825C"></path>
                <path d="M382.062277,122.059779 C380.173693,118.699292 377.57498,112.412849 376.286741,108.088955 C373.147439,97.547229 371.882825,66.1821995 374.1633,55.4132011 C376.06856,46.4209302 379.195354,40.3674781 381.257648,41.6782255 C383.564527,43.1447762 389.032943,55.5232639 391.020194,63.7779713 C393.944094,75.9191808 393.556371,106.716744 390.339248,117.775908 C388.903702,122.71158 387.22774,127.06835 386.612109,127.458572 C385.999258,127.850224 383.95086,125.420267 382.062277,122.059779 Z" id="Path" fill="#96825C"></path>
                <path d="M68.4630885,117.478986 C72.3057644,98.1605028 110.006494,60.5 125.501293,60.5 C130.281102,60.5 130.20693,62.3668941 125.010617,72.816913 C114.836227,93.2796213 90.1241411,115.546134 71.6838614,120.861477 C67.6372128,122.030078 67.5715991,121.961252 68.4630885,117.478986 Z" id="Path" fill="#96825C"></path>
                <path d="M354.598918,109.68517 C337.640408,103.542171 316.891122,87.5726432 307.077633,73.1094337 C303.734653,68.1834038 301,63.5566519 301,62.8261868 C301,62.0957217 303.693816,61.4985841 306.984694,61.5000025 C318.209163,61.5014209 342.307061,75.8667623 355.774735,90.5838616 C361.601714,96.9509644 370,109.251146 370,111.419847 C370,113.401323 362.539551,112.560224 354.598918,109.68517 Z" id="Path" fill="#96825C"></path>
                <path d="M65.8583297,93.0585455 C57.4119271,74.2295207 60.3910373,34.8457851 71.6015785,17.1312066 C73.2131033,14.5839008 75.4390506,12.5 76.5459257,12.5 C77.6528009,12.5 79.7918447,15.8589752 81.2996953,19.9628099 C84.5014002,28.6836364 84.9725082,58.4638017 82.0848753,69.6224793 C79.5753485,79.3170248 74.6340505,90.8637686 71.2478664,94.946281 L68.2992486,98.5 L65.8583297,93.0585455 Z" id="Path" fill="#96825C"></path>
                <path d="M353.094726,79.390535 C341.684363,62.8423112 337.57776,30.0056584 344.117466,7.61415907 C346.454135,-0.384710808 347.439245,-1.07281584 351.09335,2.75108211 C361.573496,13.7130165 367.369918,51.7624159 361.905822,73.7424565 C359.098852,85.0358048 357.634539,85.9738745 353.094726,79.390535 Z" id="Path" fill="#96825C"></path>
                <path d="M83.000387,76.8334236 C83.0797,64.6156085 97.4714166,36.3749237 110.602776,22.66524 C120.899055,11.9177555 132,6.15561049 132,11.5587881 C132,22.577652 119.856448,47.9523409 107.725875,62.2780126 C100.335339,71.0066644 87.5212318,81.5 84.2549755,81.5 C83.5483682,81.5 82.9830823,79.4007585 83.000387,76.8334236 Z" id="Path" fill="#96825C"></path>
                <path d="M341.159666,71.3342292 C336.32763,69.2771176 324.257221,59.1429236 318.688072,52.4699245 C307.332649,38.8615616 297.397518,20.237998 295.451704,8.90586449 C294.581827,3.84165064 294.740867,3.5 297.982507,3.5 C306.19033,3.5 326.005273,24.1403114 336.732835,43.8637882 C340.415638,50.6362552 346,66.6794195 346,70.4880312 C346,72.9329235 345.231078,73.0684305 341.159666,71.3342292 Z" id="Path" fill="#96825C"></path>
            </g>
        </g>
    </g>
</svg>