<svg width="2349px" height="713px" viewBox="0 0 2349 713" version="1.1" xmlns="http://www.w3.org/2000/svg" xmlns:xlink="http://www.w3.org/1999/xlink">
    <g id="Page-1" stroke="none" stroke-width="1" fill="none" fill-rule="evenodd">
        <g id="logo-ralphlauren" fill="#182C53">
            <path d="M439,392 L439,385.929395 L472.725417,385.929395 L472.725417,15.0706052 L439,15.0706052 L439,9 L599.886827,9 C688.899814,9 737,50.9423631 737,108.889049 C737,166.835735 691.664193,203.811239 600.439703,203.811239 L532.988868,203.811239 L532.988868,385.929395 L584.959184,385.929395 L584.959184,392 L439,392 Z M532.988868,198.292507 L586.064935,198.292507 C646.881262,198.292507 673.419295,174.010086 673.419295,107.233429 C673.419295,54.8054755 649.092764,15.0706052 591.040816,15.0706052 L533.541744,15.0706052 L533.541744,198.292507 L532.988868,198.292507 Z" id="Shape" fill-rule="nonzero"></path>
            <path d="M973.5,0 C1058.12158,0 1135,78.4325069 1135,200.5 C1135,322.567493 1058.67466,401 973.5,401 C888.878425,401 812,322.567493 812,200.5 C812.553082,78.9848485 888.878425,0 973.5,0 M973.5,394.924242 C1035.44521,394.924242 1065.86473,345.76584 1065.86473,201.052342 C1065.86473,55.7865014 1036.55137,6.62809917 973.5,6.62809917 C911.554795,6.62809917 881.135274,55.7865014 881.135274,201.052342 C881.688356,345.76584 911.554795,394.924242 973.5,394.924242" id="Shape" fill-rule="nonzero"></path>
            <path d="M1316.57347,386.922302 L1399.53265,386.922302 C1436.58776,386.922302 1447.09592,374.214388 1480.83265,238.847482 L1493,238.847482 L1493,393 L1222,393 L1222,386.922302 L1255.18367,386.922302 L1255.18367,15.0776978 L1222,15.0776978 L1222,9 L1372.43265,9 L1372.43265,15.0776978 L1316.02041,15.0776978 L1316.57347,386.922302 Z" id="Path"></path>
            <path d="M1749.50148,0 C1834.12228,0 1911,78.4325069 1911,200.5 C1911,322.567493 1834.67536,401 1749.50148,401 C1664.88068,401 1588.00297,322.567493 1588.00297,200.5 C1587.44989,78.9848485 1664.32761,0 1749.50148,0 M1749.50148,394.924242 C1811.44612,394.924242 1841.86536,345.76584 1841.86536,201.052342 C1841.86536,55.7865014 1812.55227,6.62809917 1749.50148,6.62809917 C1687.55685,6.62809917 1657.13761,55.7865014 1657.13761,201.052342 C1657.13761,345.76584 1687.00377,394.924242 1749.50148,394.924242" id="Shape" fill-rule="nonzero"></path>
            <path d="M41.8716981,551.525424 L64.4603774,551.525424 C92.0075472,551.525424 100.822642,569.20678 100.822642,585.230508 C100.822642,608.437288 86.4981132,622.250847 56.7471698,622.250847 L41.8716981,622.250847 L41.8716981,551.525424 Z M61.154717,709 L61.154717,703.474576 L41.8716981,703.474576 L41.8716981,626.118644 L42.9735849,626.118644 L106.332075,709 L146,709 L146,703.474576 L133.879245,703.474576 L74.3773585,626.118644 C110.188679,623.908475 128.920755,608.437288 128.920755,585.230508 C128.920755,564.786441 114.596226,546 72.1735849,546 L0,546 L0,551.525424 L14.8754717,551.525424 L14.8754717,703.474576 L0,703.474576 L0,709 L61.154717,709 Z" id="Shape" fill-rule="nonzero"></path>
            <path d="M265.595668,569.469799 L289.898917,638.127517 L240.740072,638.127517 L265.595668,569.469799 Z M240.740072,709 L240.740072,703.463087 L216.436823,703.463087 L237.978339,643.110738 L291.00361,643.110738 L311.440433,703.463087 L293.212996,703.463087 L293.212996,709 L349,709 L349,703.463087 L339.057762,703.463087 L284.375451,544 L268.357401,544 L210.361011,703.463087 L196,703.463087 L196,709 L240.740072,709 Z" id="Shape" fill-rule="nonzero"></path>
            <path d="M455.733945,703.040816 L492.614679,703.040816 C509.12844,703.040816 514.082569,700.285714 528.944954,642.979592 L535,642.979592 L535,708 L415,708 L415,702.489796 L429.862385,702.489796 L429.862385,551.510204 L415,551.510204 L415,546 L481.055046,546 L481.055046,551.510204 L456.284404,551.510204 L455.733945,703.040816 Z" id="Path"></path>
            <path d="M655.670833,551.525424 L681.1625,551.525424 C707.208333,551.525424 718.291667,566.444068 718.291667,588.545763 C718.291667,616.725424 706.1,624.461017 678.945833,624.461017 L655.116667,624.461017 L655.670833,551.525424 Z M678.391667,709 L678.391667,703.474576 L655.116667,703.474576 L655.116667,629.433898 L685.041667,629.433898 C726.604167,629.433898 746,612.857627 746,587.99322 C746,563.128814 724.3875,546 685.041667,546 L613,546 L613,551.525424 L627.9625,551.525424 L627.9625,703.474576 L613,703.474576 L613,709 L678.391667,709 Z" id="Shape" fill-rule="nonzero"></path>
            <polygon id="Path" points="855.463235 626.671186 855.463235 703.474576 871.455882 703.474576 871.455882 709 813 709 813 703.474576 828.441176 703.474576 828.441176 551.525424 813 551.525424 813 546 871.455882 546 871.455882 551.525424 855.463235 551.525424 855.463235 622.250847 921.088235 622.250847 921.088235 551.525424 904.544118 551.525424 904.544118 546 963 546 963 551.525424 948.110294 551.525424 948.110294 703.474576 963 703.474576 963 709 904.544118 709 904.544118 703.474576 921.088235 703.474576 921.088235 626.671186"></polygon>
            <path d="M1232.73394,703.040816 L1269.61468,703.040816 C1286.12844,703.040816 1291.08257,700.285714 1305.94495,642.979592 L1312,642.979592 L1312,708 L1192,708 L1192,702.489796 L1206.86239,702.489796 L1206.86239,551.510204 L1192,551.510204 L1192,546 L1258.05505,546 L1258.05505,551.510204 L1232.73394,551.510204 L1232.73394,703.040816 Z" id="Path"></path>
            <path d="M1441.65233,569.469799 L1465.93907,638.127517 L1416.81362,638.127517 L1441.65233,569.469799 Z M1416.81362,709 L1416.81362,703.463087 L1393.07885,703.463087 L1414.60573,643.110738 L1467.59498,643.110738 L1488.01792,703.463087 L1469.80287,703.463087 L1469.80287,709 L1525,709 L1525,703.463087 L1514.51254,703.463087 L1459.86738,544 L1443.86022,544 L1385.90323,703.463087 L1371,703.463087 L1371,709 L1416.81362,709 Z" id="Shape" fill-rule="nonzero"></path>
            <path d="M1647.40964,546 L1647.40964,551.511551 L1629.6747,551.511551 L1629.6747,669.458746 C1629.6747,698.118812 1647.40964,706.937294 1662.92771,706.937294 C1686.75904,706.937294 1703.93976,692.056106 1703.93976,667.805281 L1703.93976,552.062706 L1680.10843,552.062706 L1680.10843,546.551155 L1725,546.551155 L1725,552.062706 L1710.03614,552.062706 L1710.03614,668.356436 C1710.03614,695.363036 1690.63855,713 1661.26506,713 C1620.25301,713 1601.96386,697.016502 1601.96386,664.49835 L1601.96386,552.062706 L1587,552.062706 L1587,546.551155 L1647.40964,546 Z" id="Path"></path>
            <path d="M1836,551.525424 L1858.65789,551.525424 C1886.28947,551.525424 1895.13158,569.20678 1895.13158,585.230508 C1895.13158,608.437288 1880.76316,622.250847 1850.92105,622.250847 L1836.55263,622.250847 L1836,551.525424 Z M1855.34211,709 L1855.34211,703.474576 L1836.55263,703.474576 L1836.55263,626.118644 L1837.65789,626.118644 L1901.21053,709 L1941,709 L1941,703.474576 L1928.28947,703.474576 L1868.60526,626.118644 C1904.52632,623.908475 1923.31579,608.437288 1923.31579,585.230508 C1923.31579,564.786441 1908.94737,546 1866.39474,546 L1794,546 L1794,551.525424 L1808.92105,551.525424 L1808.92105,703.474576 L1794,703.474576 L1794,709 L1855.34211,709 Z" id="Shape" fill-rule="nonzero"></path>
            <path d="M1999,709 L1999,703.474576 L2013.92405,703.474576 L2013.92405,551.525424 L1999,551.525424 L1999,546 L2126.1308,546 L2126.1308,598.491525 L2120.60338,598.491525 C2106.78481,554.288136 2102.91561,551.525424 2091.30802,551.525424 L2042.11392,551.525424 L2042.11392,622.250847 L2061.45992,622.250847 C2074.173,622.250847 2079.70042,615.067797 2085.22785,589.650847 L2090.75527,589.650847 L2090.75527,659.823729 L2085.22785,659.823729 C2079.70042,634.40678 2074.173,627.223729 2061.45992,627.223729 L2042.11392,627.223729 L2042.11392,703.474576 L2086.33333,703.474576 C2104.0211,703.474576 2109.54852,697.39661 2123.91983,648.772881 L2130,648.772881 L2130,709 L1999,709 Z" id="Path"></path>
            <polygon id="Path" points="2227.70722 555.945763 2227.15589 555.945763 2227.15589 703.474576 2248.10646 703.474576 2248.10646 709 2204 709 2204 703.474576 2220.53992 703.474576 2220.53992 551.525424 2204 551.525424 2204 546 2251.96578 546 2324.74144 663.691525 2325.29278 663.691525 2325.29278 551.525424 2305.44487 551.525424 2305.44487 546 2349 546 2349 551.525424 2332.46008 551.525424 2332.46008 709 2323.63878 709"></polygon>
        </g>
    </g>
</svg>